<svg width="16" height="16" viewBox="0 0 16 16" fill="none" xmlns="http://www.w3.org/2000/svg">
<path fill-rule="evenodd" clip-rule="evenodd" d="M14.6667 6.66659C14.6667 9.6121 12.2789 11.9999 9.33333 11.9999C6.38781 11.9999 4 9.6121 4 6.66659C4 3.72107 6.38781 1.33325 9.33333 1.33325C12.2789 1.33325 14.6667 3.72107 14.6667 6.66659ZM5.33333 6.66659C5.33333 8.87572 7.12419 10.6666 9.33333 10.6666C11.5425 10.6666 13.3333 8.87572 13.3333 6.66659C13.3333 4.45745 11.5425 2.66659 9.33333 2.66659C7.12419 2.66659 5.33333 4.45745 5.33333 6.66659Z" fill="#DCD8D8"/>
<path d="M3.86193 11.1953L1.5286 13.5286C1.26825 13.7889 1.26825 14.2111 1.5286 14.4714C1.78895 14.7318 2.21106 14.7318 2.4714 14.4714L4.80474 12.1381C5.06509 11.8777 5.06509 11.4556 4.80474 11.1953C4.54439 10.9349 4.12228 10.9349 3.86193 11.1953Z" fill="#F0F0F0"/>
<circle cx="9.33333" cy="6.66667" r="0.666667" fill="#F0F0F0"/>
</svg>
